<svg width="50" height="50" viewBox="0 0 50 50" fill="none" xmlns="http://www.w3.org/2000/svg">
<path d="M45 0H5C2.23858 0 0 2.23858 0 5V45C0 47.7614 2.23858 50 5 50H45C47.7614 50 50 47.7614 50 45V5C50 2.23858 47.7614 0 45 0Z" fill="#FE5E2F"/>
<path d="M34.1537 38.7874C29.907 41.2161 24.0948 41.4661 18.2106 38.966C13.46 36.9659 9.51923 33.4657 7 29.4655C8.20563 30.4477 9.6272 31.2513 11.1387 31.9656C17.2029 34.7693 23.249 34.5729 27.5138 31.9656C21.4496 27.3403 16.2852 21.3221 12.4523 16.4111C11.6426 15.6075 11.0488 14.6075 10.437 13.7146C25.3364 24.5187 24.6886 27.2689 14.7736 11.9109C23.5729 20.7328 31.7425 25.7331 31.7425 25.7331C32.0304 25.8938 32.1923 26.0188 32.3903 26.126C32.5702 25.6795 32.7322 25.2152 32.8581 24.733C34.2797 19.6435 32.6602 13.8038 29.1153 9C37.3028 13.911 42.1613 23.1258 40.1279 30.8584C40.0739 31.0548 40.0199 31.2513 40.0379 31.5549C44.0687 36.6087 42.989 41.8769 42.4672 40.8768C40.2899 36.6087 36.2051 37.9302 34.1537 38.7874Z" fill="white"/>
</svg>
